<svg xmlns="http://www.w3.org/2000/svg" xmlns:xlink="http://www.w3.org/1999/xlink" width="500" zoomAndPan="magnify" viewBox="0 0 375 374.999991" height="500" preserveAspectRatio="xMidYMid meet" version="1.0"><defs><g/></defs><path fill="#1db954" d="M 84.464844 153.085938 C 96.421875 148.707031 105.414062 148.050781 108.160156 152.171875 C 113.132812 159.644531 95.722656 179.980469 69.273438 197.59375 C 42.824219 215.207031 17.347656 223.429688 12.371094 215.960938 C 9.625 211.835938 13.699219 203.792969 22.351562 194.453125 C 10.9375 205.972656 5.273438 216.097656 8.582031 221.070312 C 14.074219 229.316406 42.199219 220.242188 71.402344 200.792969 C 100.605469 181.347656 119.824219 158.894531 114.335938 150.644531 C 111.023438 145.675781 99.496094 146.996094 84.464844 153.085938 " fill-opacity="1" fill-rule="nonzero"/><path fill="#fae8e8" d="M 79.921875 161.5 C 87.519531 158.988281 93.152344 158.800781 94.972656 161.535156 C 96.949219 164.5 94.019531 170.285156 87.796875 177 C 96.007812 168.71875 100.078125 161.4375 97.699219 157.863281 C 95.597656 154.707031 88.894531 155.074219 79.921875 158.214844 L 79.921875 161.5 " fill-opacity="1" fill-rule="nonzero"/><path fill="#fae8e8" d="M 26.09375 207.40625 C 25.035156 205.816406 25.386719 203.421875 26.890625 200.503906 C 25.863281 199.738281 25.011719 198.847656 24.355469 197.867188 C 21.238281 202.449219 20.136719 206.226562 21.652344 208.503906 C 24.03125 212.078125 32.324219 211.128906 43.132812 206.746094 C 34.535156 209.898438 28.066406 210.371094 26.09375 207.40625 " fill-opacity="1" fill-rule="nonzero"/><path fill="#ffffff" d="M 30.503906 185.761719 C 31.21875 185.417969 31.980469 185.519531 32.203125 185.980469 C 32.425781 186.445312 32.027344 187.101562 31.3125 187.445312 C 30.59375 187.789062 29.835938 187.691406 29.613281 187.226562 C 29.386719 186.761719 29.789062 186.109375 30.503906 185.761719 Z M 36.410156 183.375 C 38.199219 183.152344 39.730469 183.628906 39.832031 184.433594 C 39.933594 185.242188 38.5625 186.082031 36.773438 186.304688 C 34.984375 186.527344 33.453125 186.050781 33.351562 185.242188 C 33.25 184.4375 34.621094 183.601562 36.410156 183.375 Z M 39.058594 201.539062 C 45.660156 200.558594 50.59375 196.179688 50.796875 191.410156 L 50.796875 167.375 L 61.324219 182.066406 L 72.171875 165.664062 L 72.171875 193.605469 C 74.257812 192.144531 76.289062 190.667969 78.257812 189.175781 L 78.257812 153.371094 L 72.171875 153.371094 L 60.960938 176.226562 L 50.796875 163.820312 L 44.710938 163.820312 L 44.710938 183.328125 C 42.277344 182.347656 39.316406 181.988281 36.222656 182.445312 C 28.996094 183.519531 23.777344 188.664062 24.5625 193.9375 C 25.34375 199.210938 31.835938 202.613281 39.058594 201.539062 " fill-opacity="1" fill-rule="nonzero"/><path fill="#ffffff" d="M 91.25 202.636719 C 91.101562 203.128906 90.363281 203.339844 89.605469 203.109375 C 88.847656 202.875 88.351562 202.289062 88.503906 201.796875 C 88.652344 201.304688 89.390625 201.09375 90.148438 201.324219 C 90.910156 201.554688 91.402344 202.140625 91.25 202.636719 Z M 84.03125 202.804688 C 82.230469 202.855469 80.75 202.234375 80.726562 201.421875 C 80.707031 200.609375 82.148438 199.90625 83.949219 199.855469 C 85.753906 199.808594 87.230469 200.425781 87.253906 201.242188 C 87.277344 202.054688 85.835938 202.757812 84.03125 202.804688 Z M 86.746094 199.136719 C 83.652344 198.675781 80.691406 199.039062 78.257812 200.015625 L 78.257812 198.09375 C 76.324219 199.46875 74.34375 200.835938 72.324219 202.179688 C 72.273438 202.210938 72.222656 202.246094 72.171875 202.28125 L 72.171875 208.097656 C 72.375 212.867188 77.308594 217.246094 83.910156 218.230469 C 91.132812 219.300781 97.625 215.898438 98.410156 210.625 C 99.191406 205.355469 93.972656 200.210938 86.746094 199.136719 " fill-opacity="1" fill-rule="nonzero"/><g fill="#ffffff" fill-opacity="1"><g transform="translate(125.391331, 194.999987)"><g><path d="M 10.949219 0.121094 C 20.910156 -4.289062 27 -18.03125 30.539062 -26.878906 C 30.570312 -27.03125 30.71875 -27.089844 30.871094 -27.058594 C 31.019531 -27.03125 31.109375 -26.878906 31.109375 -26.730469 C 30.03125 -17.640625 27.871094 -5.789062 27.328125 -2.941406 C 27.269531 -2.609375 27.449219 -2.25 27.78125 -2.101562 C 28.109375 -1.949219 28.5 -2.039062 28.710938 -2.308594 C 32.460938 -6.839844 39.179688 -17.789062 43.648438 -25.351562 C 43.738281 -25.46875 43.921875 -25.53125 44.039062 -25.46875 C 44.191406 -25.410156 44.25 -25.261719 44.21875 -25.109375 C 40.558594 -11.761719 38.25 -0.539062 42.628906 0.839844 C 43.050781 0.960938 43.5 0.71875 43.621094 0.300781 C 43.738281 -0.121094 43.53125 -0.539062 43.109375 -0.691406 C 39.238281 -1.859375 44.789062 -21.390625 47.160156 -29.699219 C 47.488281 -30.960938 47.820312 -32.101562 48.121094 -33.148438 C 48.210938 -33.539062 48 -33.929688 47.640625 -34.078125 C 47.25 -34.230469 46.828125 -34.078125 46.648438 -33.71875 C 45.628906 -31.738281 36.871094 -16.589844 30.75 -7.710938 C 30.628906 -7.5 30.359375 -7.441406 30.148438 -7.53125 C 29.941406 -7.621094 29.820312 -7.828125 29.851562 -8.070312 C 31.140625 -15.328125 33.089844 -27.359375 33.238281 -33.691406 C 33.269531 -34.050781 33.03125 -34.378906 32.671875 -34.46875 C 32.308594 -34.558594 31.949219 -34.378906 31.769531 -34.050781 C 31.320312 -33.179688 30.71875 -31.679688 29.96875 -29.761719 C 26.699219 -21.421875 20.578125 -5.851562 10.320312 -1.320312 C 7.320312 0 5.101562 -0.601562 3.988281 -1.589844 C 3.148438 -2.339844 2.851562 -3.511719 3.210938 -4.558594 C 3.929688 -6.691406 6.871094 -8.160156 11.039062 -8.519531 C 11.25 -8.519531 11.429688 -8.609375 11.578125 -8.789062 C 11.699219 -8.941406 11.789062 -9.148438 11.761719 -9.359375 C 11.730469 -9.78125 11.339844 -10.109375 10.921875 -10.078125 C 3.960938 -9.480469 2.160156 -6.390625 1.710938 -5.101562 C 1.140625 -3.421875 1.621094 -1.589844 2.941406 -0.421875 C 4.050781 0.539062 5.488281 1.078125 6.988281 1.019531 C 8.339844 0.988281 9.71875 0.691406 10.949219 0.121094 Z M 10.949219 0.121094 "/></g></g></g><g fill="#ffffff" fill-opacity="1"><g transform="translate(177.561286, 194.999987)"><g><path d="M 25.171875 -7.710938 C 25.019531 -7.859375 24.839844 -7.980469 24.628906 -7.980469 C 24.421875 -8.011719 24.210938 -7.949219 24.058594 -7.828125 C 23.941406 -7.738281 12.390625 1.441406 2.761719 -2.519531 C 0.808594 -3.328125 0.71875 -4.378906 0.78125 -4.949219 C 0.78125 -5.039062 0.808594 -5.128906 0.898438 -5.191406 C 0.960938 -5.25 1.078125 -5.25 1.171875 -5.21875 C 3.121094 -5.101562 5.070312 -5.609375 6.75 -6.660156 C 8.191406 -7.589844 8.429688 -8.609375 8.339844 -9.269531 C 8.28125 -10.351562 7.410156 -11.21875 6.300781 -11.25 C 3.929688 -11.371094 -0.03125 -8.550781 -0.691406 -5.550781 C -0.960938 -4.441406 -0.929688 -2.339844 2.160156 -1.078125 C 4.050781 -0.300781 6.03125 0.0585938 8.039062 0.0585938 C 16.648438 0.0585938 24.628906 -6.269531 25.050781 -6.601562 C 25.199219 -6.71875 25.320312 -6.929688 25.320312 -7.109375 C 25.351562 -7.320312 25.289062 -7.53125 25.171875 -7.710938 Z M 1.859375 -7.050781 C 3.03125 -8.671875 4.980469 -9.75 6.210938 -9.660156 C 6.539062 -9.660156 6.71875 -9.539062 6.78125 -9.089844 C 6.808594 -8.789062 6.480469 -8.371094 5.878906 -7.980469 C 4.648438 -7.171875 0.960938 -5.851562 1.859375 -7.050781 Z M 1.859375 -7.050781 "/></g></g></g><g fill="#ffffff" fill-opacity="1"><g transform="translate(207.501254, 194.999987)"><g><path d="M 20.640625 -7.679688 C 20.488281 -7.828125 20.28125 -7.921875 20.070312 -7.921875 C 19.859375 -7.921875 19.648438 -7.828125 19.5 -7.679688 C 19.441406 -7.621094 11.550781 0.148438 5.878906 -1.558594 C 3.871094 -2.160156 2.761719 -4.078125 2.128906 -6.121094 C 1.949219 -6.78125 2.011719 -7.5 2.308594 -8.128906 C 4.410156 -12.390625 9.570312 -23.550781 7.019531 -26.28125 C 6.421875 -27.03125 5.429688 -27.269531 4.558594 -26.910156 C 1.53125 -25.589844 -0.480469 -16.738281 -0.121094 -10.289062 C -0.0585938 -9.300781 0.0585938 -8.308594 0.238281 -7.320312 C 0.238281 -7.199219 0.238281 -7.109375 0.300781 -7.019531 C 1.078125 -3.238281 2.851562 -0.808594 5.429688 -0.0585938 C 6.148438 0.148438 6.871094 0.269531 7.589844 0.269531 C 13.679688 0.269531 20.308594 -6.269531 20.609375 -6.570312 C 20.761719 -6.71875 20.851562 -6.898438 20.851562 -7.109375 C 20.851562 -7.351562 20.789062 -7.53125 20.640625 -7.679688 Z M 1.53125 -10.738281 C 0.601562 -15.75 3.691406 -24.839844 5.191406 -25.46875 C 5.25 -25.5 5.308594 -25.53125 5.371094 -25.53125 C 5.488281 -25.53125 5.640625 -25.46875 5.851562 -25.230469 C 7.050781 -23.96875 3.628906 -13.109375 2.039062 -10.558594 C 1.890625 -10.289062 1.589844 -10.441406 1.53125 -10.738281 Z M 1.53125 -10.738281 "/></g></g></g><g fill="#ffffff" fill-opacity="1"><g transform="translate(233.181233, 194.999987)"><g><path d="M 21.871094 -8.519531 C 21.71875 -8.671875 21.539062 -8.730469 21.328125 -8.730469 C 21.121094 -8.730469 20.910156 -8.671875 20.761719 -8.519531 C 17.160156 -4.921875 12.058594 -3.269531 7.050781 -4.109375 C 6.660156 -4.199219 6.390625 -4.558594 6.449219 -4.949219 C 6.691406 -6.390625 6.570312 -7.859375 5.730469 -8.339844 C 5.191406 -8.640625 4.378906 -8.671875 3.421875 -7.050781 C 3.058594 -6.511719 2.941406 -5.851562 3.058594 -5.21875 C 3.210938 -4.589844 3.601562 -4.019531 4.140625 -3.691406 C 4.46875 -3.421875 4.078125 -2.96875 3.871094 -2.761719 C 3.300781 -2.070312 2.308594 -1.949219 1.621094 -2.488281 C 0.75 -2.878906 0.359375 -3.839844 0.691406 -4.710938 C 1.078125 -6.300781 2.640625 -7.679688 3.210938 -7.679688 C 3.628906 -7.679688 3.988281 -8.039062 3.988281 -8.460938 C 4.019531 -8.878906 3.660156 -9.238281 3.238281 -9.269531 L 3.210938 -9.269531 C 1.710938 -9.269531 -0.300781 -7.230469 -0.839844 -5.101562 C -1.351562 -3.539062 -0.628906 -1.828125 0.871094 -1.109375 C 1.441406 -0.78125 2.070312 -0.628906 2.730469 -0.601562 C 4.019531 -0.660156 5.160156 -1.441406 5.699219 -2.640625 C 5.761719 -2.730469 5.910156 -2.789062 6.03125 -2.761719 C 9.839844 -1.621094 16.800781 -2.339844 21.871094 -7.378906 C 22.019531 -7.53125 22.109375 -7.738281 22.109375 -7.949219 C 22.109375 -8.160156 22.019531 -8.371094 21.871094 -8.519531 Z M 4.890625 -5.101562 C 4.558594 -5.398438 4.5 -5.878906 4.769531 -6.238281 C 4.859375 -6.390625 4.921875 -6.480469 4.980469 -6.570312 C 5.011719 -6.089844 4.980469 -5.578125 4.890625 -5.101562 Z M 4.890625 -5.101562 "/></g></g></g><g fill="#ffffff" fill-opacity="1"><g transform="translate(259.821212, 194.999987)"><g><path d="M 28.378906 -6.871094 C 28.230469 -7.019531 28.050781 -7.078125 27.839844 -7.109375 C 27.628906 -7.109375 27.421875 -7.019531 27.269531 -6.871094 C 22.738281 -2.429688 16.140625 -0.898438 13.378906 -1.769531 C 11.039062 -2.519531 9.960938 -4.648438 9.480469 -6.898438 C 9.390625 -7.410156 9.480469 -7.890625 9.75 -8.308594 C 13.351562 -14.429688 17.160156 -23.25 15.839844 -25.378906 C 15.539062 -25.859375 15 -26.101562 14.429688 -26.011719 C 11.101562 -25.589844 8.25 -18.691406 7.679688 -12.539062 C 7.558594 -11.21875 7.558594 -9.929688 7.648438 -8.640625 C 7.679688 -8.21875 7.589844 -7.800781 7.351562 -7.441406 C 7.171875 -7.140625 6.960938 -6.808594 6.75 -6.511719 C 4.109375 -2.609375 2.308594 -1.351562 1.558594 -1.441406 C 1.171875 -1.46875 0.839844 -1.738281 0.75 -2.101562 C 0.449219 -3.628906 0.808594 -5.191406 1.679688 -6.449219 C 2.308594 -7.199219 3.238281 -8.039062 4.140625 -7.859375 C 4.648438 -7.710938 5.070312 -7.320312 5.28125 -6.839844 C 5.371094 -6.421875 5.761719 -6.121094 6.179688 -6.179688 C 6.601562 -6.238281 6.898438 -6.628906 6.839844 -7.078125 C 6.539062 -8.160156 5.730469 -9 4.648438 -9.328125 C 3.71875 -9.628906 2.21875 -9.511719 0.480469 -7.46875 C -0.480469 -6.359375 -1.441406 -3.421875 -0.71875 -1.53125 C -0.421875 -0.628906 0.390625 0 1.320312 0.121094 C 1.410156 0.121094 1.53125 0.121094 1.621094 0.121094 C 3.210938 0.121094 5.21875 -1.589844 7.589844 -4.980469 C 7.679688 -5.101562 7.859375 -5.191406 8.039062 -5.160156 C 8.21875 -5.160156 8.371094 -5.039062 8.429688 -4.890625 C 9.089844 -2.699219 10.769531 -0.988281 12.898438 -0.269531 C 16.441406 0.839844 23.640625 -1.140625 28.378906 -5.761719 C 28.679688 -6.058594 28.679688 -6.539062 28.378906 -6.871094 Z M 9.269531 -12.390625 C 9.75 -17.878906 11.941406 -22.710938 13.800781 -24.089844 C 13.949219 -24.179688 14.160156 -24.210938 14.339844 -24.089844 C 14.488281 -24 14.578125 -23.820312 14.578125 -23.640625 C 14.308594 -21.359375 12.691406 -17.25 9.691406 -11.910156 C 9.210938 -11.128906 9.210938 -11.851562 9.269531 -12.390625 Z M 9.269531 -12.390625 "/></g></g></g><g fill="#ffffff" fill-opacity="1"><g transform="translate(293.031186, 194.999987)"><g><path d="M 19.441406 -8.101562 C 19.109375 -8.398438 18.628906 -8.398438 18.328125 -8.070312 C 18.210938 -7.980469 8.488281 1.921875 2.039062 -2.789062 C 0.0585938 -4.230469 1.980469 -7.980469 2.011719 -8.011719 C 2.191406 -8.398438 2.039062 -8.851562 1.648438 -9.058594 C 1.261719 -9.238281 0.808594 -9.121094 0.601562 -8.730469 C 0.480469 -8.550781 -1.949219 -3.78125 1.109375 -1.53125 C 2.519531 -0.480469 4.261719 0.0898438 6.03125 0.0585938 C 12.511719 0.0585938 19.078125 -6.628906 19.441406 -6.988281 C 19.589844 -7.140625 19.679688 -7.320312 19.679688 -7.53125 C 19.648438 -7.738281 19.589844 -7.949219 19.441406 -8.101562 Z M 0.269531 -10.46875 C 0.390625 -10.46875 0.511719 -10.5 0.628906 -10.558594 C 1.351562 -10.921875 1.980469 -11.398438 2.550781 -11.96875 C 2.851562 -12.300781 2.820312 -12.78125 2.519531 -13.078125 C 2.191406 -13.378906 1.710938 -13.378906 1.410156 -13.050781 C 0.960938 -12.601562 0.449219 -12.238281 -0.121094 -11.941406 C -0.421875 -11.789062 -0.601562 -11.398438 -0.511719 -11.070312 C -0.421875 -10.710938 -0.0898438 -10.46875 0.269531 -10.46875 Z M 0.269531 -10.46875 "/></g></g></g><g fill="#ffffff" fill-opacity="1"><g transform="translate(317.361175, 194.999987)"><g><path d="M 19.828125 -7.800781 C 19.679688 -7.949219 19.5 -8.039062 19.289062 -8.039062 C 19.078125 -8.039062 18.871094 -7.980469 18.71875 -7.828125 C 15.03125 -4.289062 5.578125 -5.878906 2.191406 -7.019531 C 1.5 -7.230469 1.53125 -7.5 1.949219 -7.921875 C 4.078125 -10.320312 8.308594 -15.359375 7.738281 -17.429688 C 7.621094 -17.941406 7.199219 -18.328125 6.691406 -18.480469 C 6.148438 -18.628906 5.578125 -18.539062 5.101562 -18.238281 C 3 -17.070312 1.230469 -12.058594 0.121094 -8.28125 L 0.0898438 -8.21875 C -0.03125 -8.128906 -0.0898438 -7.980469 -0.121094 -7.828125 C -0.570312 -7.621094 -0.691406 -7.289062 -0.570312 -5.699219 C -0.570312 -5.640625 -0.570312 -5.609375 -0.601562 -5.578125 C -2.339844 1.53125 -3.871094 11.910156 -1.921875 13.710938 C -1.679688 13.949219 -1.351562 14.070312 -1.019531 14.070312 C -0.839844 14.070312 -0.660156 14.039062 -0.511719 13.980469 C 2.488281 12.929688 2.011719 5.308594 1.230469 -3.058594 C 1.171875 -3.691406 1.109375 -4.320312 1.050781 -4.890625 C 1.019531 -5.398438 1.320312 -5.640625 1.828125 -5.460938 C 4.171875 -4.738281 6.570312 -4.289062 9 -4.140625 C 12.449219 -3.898438 17.160156 -4.140625 19.800781 -6.691406 C 20.128906 -6.988281 20.128906 -7.5 19.828125 -7.800781 Z M 5.878906 -16.890625 C 5.878906 -16.890625 6.058594 -17.101562 6.238281 -17.011719 C 6.570312 -16.828125 4.679688 -13.351562 3 -11.609375 C 1.050781 -9.601562 5.070312 -16.230469 5.878906 -16.890625 Z M -0.929688 12.449219 C -2.039062 12.269531 -0.78125 -0.121094 -0.148438 -0.121094 C 0.480469 -0.121094 0.179688 12.628906 -0.929688 12.449219 Z M -0.929688 12.449219 "/></g></g></g><g fill="#ffffff" fill-opacity="1"><g transform="translate(341.871145, 194.999987)"><g><path d="M 23.730469 -8.25 C 23.398438 -8.550781 22.921875 -8.550781 22.621094 -8.25 C 22.441406 -8.070312 18.511719 -4.171875 13.199219 -8.070312 C 12.898438 -8.28125 12.511719 -8.28125 12.210938 -8.011719 C 11.730469 -7.589844 11.21875 -7.078125 10.679688 -6.539062 C 10.46875 -6.300781 10.109375 -6.210938 9.808594 -6.328125 C 9.511719 -6.449219 9.300781 -6.71875 9.269531 -7.050781 C 9.269531 -7.679688 9.179688 -8.308594 8.96875 -8.910156 C 8.851562 -9.238281 8.519531 -9.449219 8.160156 -9.390625 C 7.800781 -9.359375 7.53125 -9.089844 7.46875 -8.761719 C 7.46875 -8.699219 6.511719 -3.390625 2.429688 -2.308594 C 2.070312 -2.191406 1.679688 -2.28125 1.410156 -2.550781 C 1.171875 -2.820312 0.480469 -4.019531 2.039062 -7.828125 C 2.191406 -8.25 2.011719 -8.699219 1.589844 -8.851562 C 1.199219 -9.03125 0.71875 -8.820312 0.570312 -8.429688 C -1.109375 -4.289062 -0.539062 -2.371094 0.210938 -1.5 C 0.871094 -0.78125 1.890625 -0.511719 2.820312 -0.808594 C 4.921875 -1.378906 6.660156 -2.820312 7.648438 -4.738281 C 7.621094 -4.171875 7.53125 -3.601562 7.441406 -3 C 7.410156 -2.878906 7.351562 -2.730469 7.261719 -2.609375 C 3.75 1.800781 0.570312 7.199219 0.511719 10.589844 C 0.421875 11.488281 0.75 12.390625 1.378906 13.078125 C 1.648438 13.351562 2.011719 13.53125 2.398438 13.53125 C 2.730469 13.5 3.058594 13.410156 3.328125 13.230469 C 5.308594 11.910156 7.828125 4.230469 8.820312 -1.890625 C 8.851562 -2.039062 8.910156 -2.160156 9 -2.28125 C 9.929688 -3.421875 10.890625 -4.5 11.851562 -5.460938 C 12.390625 -6.03125 13.199219 -6.148438 13.890625 -5.789062 C 17.128906 -4.078125 21.089844 -4.621094 23.730469 -7.140625 C 23.878906 -7.289062 23.96875 -7.5 23.96875 -7.710938 C 23.96875 -7.921875 23.878906 -8.101562 23.730469 -8.25 Z M 6.601562 1.378906 C 5.941406 4.378906 4.980469 7.261719 3.71875 10.050781 C 3.03125 11.429688 2.730469 11.96875 2.429688 11.910156 C 2.160156 11.878906 2.070312 11.21875 2.101562 10.621094 C 2.128906 8.429688 3.929688 4.828125 6.328125 1.320312 C 6.480469 1.109375 6.660156 1.171875 6.601562 1.378906 Z M 6.601562 1.378906 "/></g></g></g></svg>